<svg width="27" height="18" viewBox="0 0 27 18" fill="none" xmlns="http://www.w3.org/2000/svg">
<path d="M0 6.66261C0 10.1925 2.42671 12.5804 5.58357 12.5804C7.7311 12.5804 9.25584 11.4799 9.96452 10.2548V12.6427C9.96452 15.0721 8.39683 16.3595 6.31373 16.3595C4.38095 16.3595 2.98506 15.4251 2.55556 14.0547H0.622783C1.00934 16.4841 3.22129 17.9999 6.31373 17.9999C9.77125 17.9999 11.9402 15.7781 11.9402 12.6427V1.01473H9.96452V3.09116C9.27731 1.86606 7.7311 0.82785 5.58357 0.82785C2.42671 0.82785 0 3.11192 0 6.66261ZM9.96452 6.68337C9.96452 9.36196 8.11765 10.9193 5.97012 10.9193C3.8226 10.9193 1.9972 9.3412 1.9972 6.66261C1.9972 3.98402 3.8226 2.46823 5.97012 2.46823C8.11765 2.46823 9.96452 4.04631 9.96452 6.68337Z" fill="white"/>
<path d="M26.4099 6.68337C26.4099 3.09116 23.8114 0.82785 20.4612 0.82785C17.1326 0.82785 14.5126 3.09116 14.5126 6.68337C14.5126 10.2964 17.0467 12.5804 20.3753 12.5804C23.7255 12.5804 26.4099 10.2964 26.4099 6.68337ZM16.5098 6.68337C16.5098 3.8179 18.3781 2.46823 20.4398 2.46823C22.4584 2.46823 24.4127 3.8179 24.4127 6.68337C24.4127 9.5696 22.4155 10.9193 20.3753 10.9193C18.3352 10.9193 16.5098 9.5696 16.5098 6.68337Z" fill="white"/>
</svg>
