<svg width="92" height="17" viewBox="0 0 92 17" fill="none" xmlns="http://www.w3.org/2000/svg">
<path d="M2.10323 16.3937H4.57288V6.88367H6.76336V4.9526H4.57288V4.14279C4.57288 2.83464 5.08829 2.3363 6.59156 2.3363V0.363693C3.49912 0.363693 2.10323 1.50573 2.10323 4.14279V4.9526H0.707336V6.88367H2.10323V16.3937Z" fill="white"/>
<path d="M8.93303 16.3937H11.3812V4.9526H8.93303V16.3937ZM10.1786 3.4368C11.0376 3.4368 11.7248 2.77235 11.7248 1.92101C11.7248 1.06968 11.0376 0.405221 10.1786 0.405221C9.29811 0.405221 8.6109 1.06968 8.6109 1.92101C8.6109 2.77235 9.29811 3.4368 10.1786 3.4368Z" fill="white"/>
<path d="M22.9923 16.3937H25.419V9.64532C25.419 6.44762 23.3359 4.76572 20.5656 4.76572C19.1482 4.76572 17.8382 5.32635 17.0436 6.26074V4.9526H14.5955V16.3937H17.0436V9.99831C17.0436 7.90112 18.2248 6.82138 20.0287 6.82138C21.8111 6.82138 22.9923 7.90112 22.9923 9.99831V16.3937Z" fill="white"/>
<path d="M27.7257 10.6212C27.7257 14.1512 30.1954 16.5806 33.2663 16.5806C35.2421 16.5806 36.6594 15.667 37.4111 14.691V16.3937H39.8807V4.9526H37.4111V6.61374C36.6809 5.67934 35.3065 4.76572 33.3093 4.76572C30.1954 4.76572 27.7257 7.09131 27.7257 10.6212ZM37.4111 10.6628C37.4111 13.1337 35.6716 14.5249 33.8247 14.5249C31.9993 14.5249 30.2383 13.0922 30.2383 10.6212C30.2383 8.15029 31.9993 6.82138 33.8247 6.82138C35.6716 6.82138 37.4111 8.21258 37.4111 10.6628Z" fill="white"/>
<path d="M51.4931 16.3937H53.9198V9.64532C53.9198 6.44762 51.8367 4.76572 49.0664 4.76572C47.6491 4.76572 46.3391 5.32635 45.5445 6.26074V4.9526H43.0963V16.3937H45.5445V9.99831C45.5445 7.90112 46.7256 6.82138 48.5296 6.82138C50.312 6.82138 51.4931 7.90112 51.4931 9.99831V16.3937Z" fill="white"/>
<path d="M56.2266 10.6628C56.2266 14.255 58.6318 16.5806 62.0249 16.5806C64.9241 16.5806 66.8139 15.0233 67.4796 12.7807H64.8382C64.3872 13.9643 63.4852 14.5872 62.0249 14.5872C60.0492 14.5872 58.7392 13.1752 58.7392 10.6628C58.7392 8.17105 60.0492 6.75909 62.0249 6.75909C63.4852 6.75909 64.4301 7.46507 64.8382 8.56558H67.4796C66.8139 6.15692 64.9241 4.76572 62.0249 4.76572C58.6318 4.76572 56.2266 7.09131 56.2266 10.6628Z" fill="white"/>
<path d="M74.9017 6.75909C76.7271 6.75909 78.1659 7.88035 78.2089 9.64532H71.6589C71.9166 7.83883 73.2481 6.75909 74.9017 6.75909ZM80.4423 12.9884H77.8008C77.3499 13.8812 76.5123 14.5872 75.009 14.5872C73.2051 14.5872 71.8092 13.4452 71.6374 11.5556H80.6785C80.7429 11.1611 80.7644 10.7874 80.7644 10.3928C80.7644 7.02902 78.3807 4.76572 75.009 4.76572C71.5086 4.76572 69.1034 7.07055 69.1034 10.6628C69.1034 14.255 71.616 16.5806 75.009 16.5806C77.9082 16.5806 79.7766 14.9817 80.4423 12.9884Z" fill="white"/>
<path d="M92 13.196C91.8712 9.06392 85.1924 10.3513 85.1924 8.04647C85.1924 7.27819 85.8796 6.75909 87.1896 6.75909C88.521 6.75909 89.3156 7.44431 89.4015 8.44099H91.8497C91.7208 6.15692 89.9599 4.76572 87.2754 4.76572C84.4837 4.76572 82.7227 6.23998 82.7227 8.06723C82.7227 12.2616 89.5948 10.9742 89.5948 13.2168C89.5948 14.0058 88.8431 14.5872 87.4258 14.5872C86.0728 14.5872 85.1494 13.8189 85.0635 12.8845H82.5294C82.6368 14.961 84.634 16.5806 87.4687 16.5806C90.2605 16.5806 92 15.1271 92 13.196Z" fill="white"/>
</svg>
